<svg width="50" height="19" viewBox="0 0 50 19" fill="none" xmlns="http://www.w3.org/2000/svg">
<path d="M3.592 8.76H11.656V11.88H3.592V8.76ZM3.88 18H-0.0079999V1.2H12.688V4.32H3.88V18ZM20.3245 18.288C19.0925 18.288 17.9965 18.088 17.0365 17.688C16.0765 17.288 15.3165 16.744 14.7565 16.056C14.1965 15.368 13.9165 14.576 13.9165 13.68C13.9165 12.848 14.1005 12.104 14.4685 11.448C14.8365 10.776 15.4205 10.152 16.2205 9.576C17.0205 8.984 18.0365 8.408 19.2685 7.848C20.1645 7.432 20.8685 7.064 21.3805 6.744C21.8925 6.424 22.2525 6.12 22.4605 5.832C22.6685 5.528 22.7725 5.224 22.7725 4.92C22.7725 4.504 22.6285 4.168 22.3405 3.912C22.0685 3.656 21.6605 3.528 21.1165 3.528C20.5405 3.528 20.0925 3.672 19.7725 3.96C19.4525 4.248 19.2925 4.616 19.2925 5.064C19.2925 5.304 19.3405 5.544 19.4365 5.784C19.5325 6.008 19.7165 6.272 19.9885 6.576C20.2605 6.864 20.6445 7.24 21.1405 7.704L29.9965 15.912L27.9565 18.288L18.1885 9.216C17.6285 8.704 17.1805 8.224 16.8445 7.776C16.5085 7.328 16.2605 6.888 16.1005 6.456C15.9565 6.024 15.8845 5.576 15.8845 5.112C15.8845 4.296 16.1005 3.576 16.5325 2.952C16.9645 2.328 17.5725 1.848 18.3565 1.512C19.1405 1.16 20.0605 0.983999 21.1165 0.983999C22.0925 0.983999 22.9325 1.144 23.6365 1.464C24.3565 1.768 24.9165 2.208 25.3165 2.784C25.7325 3.36 25.9405 4.048 25.9405 4.848C25.9405 5.552 25.7645 6.2 25.4125 6.792C25.0605 7.368 24.5085 7.912 23.7565 8.424C23.0205 8.936 22.0525 9.456 20.8525 9.984C20.0365 10.352 19.3885 10.712 18.9085 11.064C18.4445 11.4 18.1085 11.744 17.9005 12.096C17.6925 12.448 17.5885 12.84 17.5885 13.272C17.5885 13.672 17.7085 14.032 17.9485 14.352C18.2045 14.672 18.5565 14.92 19.0045 15.096C19.4525 15.272 19.9805 15.36 20.5885 15.36C21.5645 15.36 22.4605 15.136 23.2765 14.688C24.0925 14.224 24.7805 13.544 25.3405 12.648C25.9165 11.736 26.3245 10.632 26.5645 9.336L29.5645 10.272C29.2285 11.904 28.6285 13.32 27.7645 14.52C26.9005 15.72 25.8365 16.648 24.5725 17.304C23.3085 17.96 21.8925 18.288 20.3245 18.288ZM32.7454 18V1.2H40.3774C42.2014 1.2 43.8094 1.552 45.2014 2.256C46.5934 2.944 47.6814 3.912 48.4654 5.16C49.2494 6.408 49.6414 7.888 49.6414 9.6C49.6414 11.296 49.2494 12.776 48.4654 14.04C47.6814 15.288 46.5934 16.264 45.2014 16.968C43.8094 17.656 42.2014 18 40.3774 18H32.7454ZM36.6334 14.808H40.1854C41.3054 14.808 42.2734 14.6 43.0894 14.184C43.9214 13.752 44.5614 13.144 45.0094 12.36C45.4734 11.576 45.7054 10.656 45.7054 9.6C45.7054 8.528 45.4734 7.608 45.0094 6.84C44.5614 6.056 43.9214 5.456 43.0894 5.04C42.2734 4.608 41.3054 4.392 40.1854 4.392H36.6334V14.808Z" fill="#EC994B"/>
</svg>
